<?xml version="1.0" standalone="no"?>
<!DOCTYPE svg PUBLIC "-//W3C//DTD SVG 20010904//EN"
 "http://www.w3.org/TR/2001/REC-SVG-20010904/DTD/svg10.dtd">
<svg version="1.0" xmlns="http://www.w3.org/2000/svg"
 width="50.000000pt" height="50.000000pt" viewBox="0 0 50.000000 50.000000"
 preserveAspectRatio="xMidYMid meet">

<g transform="translate(0.000000,50.000000) scale(0.100000,-0.100000)"
fill="#000000" stroke="none">
<path d="M189 470 c-45 -13 -79 -42 -107 -89 -24 -40 -27 -57 -27 -131 0 -75
3 -91 27 -132 35 -58 82 -88 151 -95 129 -13 216 65 217 195 l0 52 -90 0 -90
0 0 -35 c0 -35 0 -35 45 -35 39 0 45 -3 45 -21 0 -11 -14 -34 -30 -51 -28 -27
-36 -30 -76 -25 -51 5 -81 27 -100 74 -41 97 14 223 98 223 39 0 85 -25 93
-50 5 -16 15 -20 52 -20 37 0 44 3 39 16 -3 9 -6 19 -6 24 0 19 -57 74 -95 91
-41 19 -101 23 -146 9z"/>
</g>
</svg>
